<svg xmlns="http://www.w3.org/2000/svg" viewBox="0 0 512 512" role="img" aria-label="谁是卧底面具图标">
  <defs>
    <linearGradient id="bg" x1="70" y1="50" x2="450" y2="470" gradientUnits="userSpaceOnUse">
      <stop stop-color="#7658F2"/>
      <stop offset="1" stop-color="#4C32C7"/>
    </linearGradient>
  </defs>
  <rect width="512" height="512" rx="112" fill="url(#bg)"/>
  <path d="M110 166c43-25 92-38 146-38s103 13 146 38c8 5 13 13 13 23v60c0 79-67 143-159 143S97 328 97 249v-60c0-10 5-18 13-23Z" fill="#FFFDF8"/>
  <path d="M139 221c31-23 70-24 98 0-11 37-65 52-98 0Zm136 0c28-24 67-23 98 0-33 52-87 37-98 0Z" fill="#4C32C7"/>
  <path d="M214 313c24 14 60 14 84 0" fill="none" stroke="#7658F2" stroke-width="18" stroke-linecap="round"/>
  <circle cx="188" cy="229" r="8" fill="#FFFDF8"/>
  <circle cx="324" cy="229" r="8" fill="#FFFDF8"/>
</svg>
